<svg xmlns="http://www.w3.org/2000/svg" xmlns:xlink="http://www.w3.org/1999/xlink" fill="none" version="1.1" width="24" height="24" viewBox="0 0 24 24"><defs><clipPath id="master_svg0_0_8315"><rect x="0" y="0" width="24" height="24" rx="0"/></clipPath></defs><g clip-path="url(#master_svg0_0_8315)"><g><g><path d="M12,21C7.02944,21,3,16.970599999999997,3,12C3,7.02944,7.02944,3,12,3C16.970599999999997,3,21,7.02944,21,12C21,16.970599999999997,16.970599999999997,21,12,21ZM23,12C23,5.92487,18.0751,1,12,1C5.92487,1,1,5.92487,1,12C1,18.0751,5.92487,23,12,23C18.0751,23,23,18.0751,23,12Z" fill-rule="evenodd" fill="#000000" fill-opacity="1"/></g><g><path d="M13,6C13,6,11,6,11,6C11,6,11,18,11,18C11,18,13,18,13,18C13,18,13,6,13,6Z" fill-rule="evenodd" fill="#000000" fill-opacity="1"/></g><g transform="matrix(0,-1,1,0,-7,19)"><path d="M8,13C8,13,6,13,6,13C6,13,6,25,6,25C6,25,8,25,8,25C8,25,8,13,8,13Z" fill-rule="evenodd" fill="#000000" fill-opacity="1"/></g></g></g></svg>