<svg xmlns="http://www.w3.org/2000/svg" xmlns:xlink="http://www.w3.org/1999/xlink" fill="none" version="1.1" width="24" height="24" viewBox="0 0 24 24"><defs><clipPath id="master_svg0_0_11202"><rect x="0" y="0" width="24" height="24" rx="0"/></clipPath></defs><g clip-path="url(#master_svg0_0_11202)"><g><g><path d="M2,20.5C2,20.5,9,20.5,9,20.5C9,20.5,9,18.5,9,18.5C9,18.5,3,18.5,3,18.5C3,18.5,3,4.5,3,4.5C3,4.5,19,4.5,19,4.5C19,4.5,19,9,19,9C19,9,21,9,21,9C21,9,21,3.5,21,3.5C21,2.947715,20.5523,2.5,20,2.5C20,2.5,2,2.5,2,2.5C1.447715,2.5,1,2.947715,1,3.5C1,3.5,1,19.5,1,19.5C1,20.0523,1.447715,20.5,2,20.5Z" fill-rule="evenodd" fill="#000000" fill-opacity="1"/></g><g><path d="M20,8.5C20,8.5,20,6.5,20,6.5C20,6.5,2,6.5,2,6.5C2,6.5,2,8.5,2,8.5C2,8.5,20,8.5,20,8.5Z" fill-rule="evenodd" fill="#000000" fill-opacity="1"/></g><g><path d="M7,1.5C7,1.5,5,1.5,5,1.5C5,1.5,5,5,5,5C5,5,7,5,7,5C7,5,7,1.5,7,1.5Z" fill-rule="evenodd" fill="#000000" fill-opacity="1"/></g><g><path d="M17,1.5C17,1.5,15,1.5,15,1.5C15,1.5,15,5,15,5C15,5,17,5,17,5C17,5,17,1.5,17,1.5Z" fill-rule="evenodd" fill="#000000" fill-opacity="1"/></g><g><path d="M16.5,22.5C12.91015,22.5,10,19.5899,10,16C10,12.41015,12.91015,9.5,16.5,9.5C20.0899,9.5,23,12.41015,23,16C23,19.5899,20.0899,22.5,16.5,22.5ZM14,17C14,17,15.5,17,15.5,17C15.5,17,15.5,18.5,15.5,18.5C15.5,18.5,17.5,18.5,17.5,18.5C17.5,18.5,17.5,17,17.5,17C17.5,17,19,17,19,17C19,17,19,15,19,15C19,15,17.5,15,17.5,15C17.5,15,17.5,13.5,17.5,13.5C17.5,13.5,15.5,13.5,15.5,13.5C15.5,13.5,15.5,15,15.5,15C15.5,15,14,15,14,15C14,15,14,17,14,17Z" fill-rule="evenodd" fill="#000000" fill-opacity="1"/></g></g></g></svg>