<svg xmlns="http://www.w3.org/2000/svg" xmlns:xlink="http://www.w3.org/1999/xlink" fill="none" version="1.1" width="24.00000050965309" height="24.000000509653546" viewBox="0 0 24.00000050965309 24.000000509653546"><defs><clipPath id="master_svg0_23_193"><rect x="24" y="24.000000509653546" width="24" height="24" rx="0"/></clipPath></defs><g transform="matrix(-1,-2.1235546654452264e-8,2.1235546654452264e-8,-1,47.999999490346866,48.00000152896021)" clip-path="url(#master_svg0_23_193)"><g><path d="M35.29289,32.292893509653545C35.68342,31.902369409653545,36.31658,31.902369409653545,36.70711,32.292893509653545C36.70711,32.292893509653545,42.7071,38.292890509653546,42.7071,38.292890509653546C43.0976,38.683420509653544,43.0976,39.31658050965355,42.7071,39.707110509653546C42.3166,40.09763050965355,41.6834,40.09763050965355,41.2929,39.707110509653546C41.2929,39.707110509653546,36,34.41421050965354,36,34.41421050965354C36,34.41421050965354,30.70711,39.707110509653546,30.70711,39.707110509653546C30.316580000000002,40.09763050965355,29.683417,40.09763050965355,29.292893,39.707110509653546C28.9023689,39.31658050965355,28.9023689,38.683420509653544,29.292893,38.292890509653546C29.292893,38.292890509653546,35.29289,32.292893509653545,35.29289,32.292893509653545C35.29289,32.292893509653545,35.29289,32.292893509653545,35.29289,32.292893509653545Z" fill-rule="evenodd" fill="#000000" fill-opacity="1"/></g></g></svg>