<svg xmlns="http://www.w3.org/2000/svg" xmlns:xlink="http://www.w3.org/1999/xlink" fill="none" version="1.1" width="24" height="24" viewBox="0 0 24 24"><defs><clipPath id="master_svg0_0_8709"><rect x="0" y="0" width="24" height="24" rx="0"/></clipPath></defs><g clip-path="url(#master_svg0_0_8709)"><g><g><path d="M5.002367615814209,22.0688C5.038527615814209,22.5931,5.474417615814209,23,5.999997615814209,23C5.999997615814209,23,17.99999761581421,23,17.99999761581421,23C18.52559761581421,23,18.96149761581421,22.5931,18.997597615814207,22.0688C18.997597615814207,22.0688,19.997597615814207,7.5687999999999995,19.997597615814207,7.5687999999999995C20.01669761581421,7.292292,19.92019761581421,7.020269,19.73099761581421,6.817652C19.541897615814207,6.615035,19.27719761581421,6.5,18.99999761581421,6.5C18.99999761581421,6.5,4.999997615814209,6.5,4.999997615814209,6.5C4.722832615814209,6.5,4.458097615814209,6.615035,4.268972615814209,6.817652C4.079847915814209,7.020269,3.983300015814209,7.292292,4.002369675814209,7.5687999999999995C4.002369675814209,7.5687999999999995,5.002367615814209,22.0688,5.002367615814209,22.0688ZM17.06659761581421,21C17.06659761581421,21,6.933407615814209,21,6.933407615814209,21C6.933407615814209,21,6.071337615814209,8.5,6.071337615814209,8.5C6.071337615814209,8.5,17.928697615814208,8.5,17.928697615814208,8.5C17.928697615814208,8.5,17.06659761581421,21,17.06659761581421,21Z" fill-rule="evenodd" fill="#000000" fill-opacity="1"/></g><g><path d="M2,4C2,4,2,6,2,6C2,6,22,6,22,6C22,6,22,4,22,4C22,4,2,4,2,4Z" fill-rule="evenodd" fill="#000000" fill-opacity="1"/></g><g><path d="M13,10C13,10,11,10,11,10C11,10,11,19,11,19C11,19,13,19,13,19C13,19,13,10,13,10Z" fill-rule="evenodd" fill="#000000" fill-opacity="1"/></g><g><path d="M9.498459707183837,9.944530487060547C9.498459707183837,9.944530487060547,7.501539707183838,10.055470487060546,7.501539707183838,10.055470487060546C7.501539707183838,10.055470487060546,8.001539707183838,19.055470487060546,8.001539707183838,19.055470487060546C8.001539707183838,19.055470487060546,9.998459707183837,18.944530487060547,9.998459707183837,18.944530487060547C9.998459707183837,18.944530487060547,9.498459707183837,9.944530487060547,9.498459707183837,9.944530487060547Z" fill-rule="evenodd" fill="#000000" fill-opacity="1"/></g><g transform="matrix(-1,0,0,1,32.99692153930664,0)"><path d="M18.49538076965332,9.944530487060547C18.49538076965332,9.944530487060547,16.49846076965332,10.055470487060546,16.49846076965332,10.055470487060546C16.49846076965332,10.055470487060546,16.99846076965332,19.055470487060546,16.99846076965332,19.055470487060546C16.99846076965332,19.055470487060546,18.99538076965332,18.944530487060547,18.99538076965332,18.944530487060547C18.99538076965332,18.944530487060547,18.49538076965332,9.944530487060547,18.49538076965332,9.944530487060547Z" fill-rule="evenodd" fill="#000000" fill-opacity="1"/></g><g><path d="M6,6C6,6,18,6,18,6C18.552300000000002,6,19,5.55228,19,5C19,5,19,4,19,4C19,2.34315,17.6569,1,16,1C16,1,8,1,8,1C6.34315,1,5,2.34315,5,4C5,4,5,5,5,5C5,5.55228,5.447715,6,6,6ZM17,4C17,4,7,4,7,4C7,3.44772,7.44772,3,8,3C8,3,16,3,16,3C16.552300000000002,3,17,3.44772,17,4Z" fill-rule="evenodd" fill="#000000" fill-opacity="1"/></g></g></g></svg>