<svg xmlns="http://www.w3.org/2000/svg" xmlns:xlink="http://www.w3.org/1999/xlink" fill="none" version="1.1" width="24" height="24" viewBox="0 0 24 24"><defs><clipPath id="master_svg0_0_10944"><rect x="0" y="0" width="24" height="24" rx="0"/></clipPath></defs><g clip-path="url(#master_svg0_0_10944)"><g><g><path d="M21,9C21,9,21,20,21,20C21,21.6569,19.6569,23,18,23C18,23,6,23,6,23C4.34315,23,3,21.6569,3,20C3,20,3,4,3,4C3,2.34315,4.34315,1,6,1C6,1,12,1,12,1C12,1,12,6,12,6C12,7.65685,13.3431,9,15,9C15,9,21,9,21,9ZM20.3053,7C20.1986,6.87198,20.0808,6.75215,19.9524,6.6421C19.9524,6.6421,14.2125,1.7222300000000001,14.2125,1.7222300000000001C14.144,1.663464,14.073,1.608035,14,1.556036C14,1.556036,14,6,14,6C14,6.55228,14.4477,7,15,7C15,7,20.3053,7,20.3053,7ZM15,11C15,11,15,13,15,13C15,13,7,13,7,13C7,13,7,11,7,11C7,11,15,11,15,11ZM7,14C7,14,7,16,7,16C7,16,11.5,16,11.5,16C11.5,16,11.5,14,11.5,14C11.5,14,7,14,7,14ZM14,17C14,17,14,19,14,19C14,19,7,19,7,19C7,19,7,17,7,17C7,17,14,17,14,17Z" fill-rule="evenodd" fill="#000000" fill-opacity="1"/></g></g></g></svg>