<svg xmlns="http://www.w3.org/2000/svg" xmlns:xlink="http://www.w3.org/1999/xlink" fill="none" version="1.1" width="24" height="24" viewBox="0 0 24 24"><defs><clipPath id="master_svg0_0_7815"><rect x="0" y="0" width="24" height="24" rx="0"/></clipPath></defs><g clip-path="url(#master_svg0_0_7815)"><g><g><path d="M13.23634,2.86112C13.23634,2.86112,18.9762,7.78098,18.9762,7.78098C19.3087,8.06596,19.5,8.48198,19.5,8.91987C19.5,8.91987,19.5,20,19.5,20C19.5,20.8284,18.828400000000002,21.5,18,21.5C18,21.5,6,21.5,6,21.5C5.17157,21.5,4.5,20.8284,4.5,20C4.5,20,4.5,4,4.5,4C4.5,3.17157,5.17157,2.5,6,2.5C6,2.5,12.26015,2.5,12.26015,2.5C12.61822,2.5,12.96447,2.6280900000000003,13.23634,2.86112ZM6,22.5C6,22.5,18,22.5,18,22.5C19.380699999999997,22.5,20.5,21.3807,20.5,20C20.5,20,20.5,8.91987,20.5,8.91987C20.5,8.190059999999999,20.1811,7.49668,19.627,7.02173C19.627,7.02173,13.8871,2.101858,13.8871,2.101858C13.43402,1.7134800000000001,12.85693,1.5,12.26015,1.5C12.26015,1.5,6,1.5,6,1.5C4.6192899999999995,1.5,3.5,2.61929,3.5,4C3.5,4,3.5,20,3.5,20C3.5,21.3807,4.6192899999999995,22.5,6,22.5Z" fill-rule="evenodd" fill="#000000" fill-opacity="1"/></g><g><path d="M19.5,8.5C19.5,8.5,19.5,7.5,19.5,7.5C19.5,7.5,15,7.5,15,7.5C14.17157,7.5,13.5,6.82843,13.5,6C13.5,6,13.5,2.5,13.5,2.5C13.5,2.5,12.5,2.5,12.5,2.5C12.5,2.5,12.5,6,12.5,6C12.5,7.38071,13.61929,8.5,15,8.5C15,8.5,19.5,8.5,19.5,8.5Z" fill-rule="evenodd" fill="#000000" fill-opacity="1"/></g><g><path d="M12.5,10C12.5,10,11.5,10,11.5,10C11.5,10,11.5,18,11.5,18C11.5,18,12.5,18,12.5,18C12.5,18,12.5,10,12.5,10Z" fill-rule="evenodd" fill="#000000" fill-opacity="1"/></g><g><path d="M8,13.5C8,13.5,8,14.5,8,14.5C8,14.5,16,14.5,16,14.5C16,14.5,16,13.5,16,13.5C16,13.5,8,13.5,8,13.5Z" fill-rule="evenodd" fill="#000000" fill-opacity="1"/></g></g></g></svg>