<svg xmlns="http://www.w3.org/2000/svg" xmlns:xlink="http://www.w3.org/1999/xlink" fill="none" version="1.1" width="24" height="24" viewBox="0 0 24 24"><defs><clipPath id="master_svg0_0_9117"><rect x="0" y="0" width="24" height="24" rx="0"/></clipPath></defs><g clip-path="url(#master_svg0_0_9117)"><g><g transform="matrix(-1,-8.742277657347586e-8,8.742277657347586e-8,-1,27.999998338967245,38.00000122391887)"><path d="M18,21Q18,21.09825,17.99037,21.19603Q17.98074,21.29381,17.961570000000002,21.39018Q17.9424,21.48655,17.91388,21.58057Q17.88536,21.67459,17.84776,21.76537Q17.81016,21.85614,17.763840000000002,21.94279Q17.71753,22.02945,17.66294,22.11114Q17.60835,22.19284,17.54602,22.26879Q17.48369,22.34474,17.41421,22.41421Q17.34474,22.48369,17.26879,22.54602Q17.19284,22.60835,17.11114,22.66294Q17.02945,22.71753,16.94279,22.763840000000002Q16.85614,22.81016,16.76537,22.84776Q16.67459,22.88536,16.58057,22.91388Q16.48655,22.9424,16.39018,22.961570000000002Q16.29381,22.98074,16.19603,22.99037Q16.09825,23,16,23Q15.90175,23,15.80397,22.99037Q15.70619,22.98074,15.60982,22.961570000000002Q15.51345,22.9424,15.41943,22.91388Q15.32541,22.88536,15.23463,22.84776Q15.14386,22.81016,15.05721,22.763840000000002Q14.970554,22.71753,14.888859,22.66294Q14.807164,22.60835,14.731213,22.54602Q14.655262,22.48369,14.585786,22.41421Q14.516311,22.34474,14.453979,22.26879Q14.391648,22.19284,14.337061,22.11114Q14.282474,22.02945,14.236157,21.94279Q14.189841,21.85614,14.152241,21.76537Q14.114641,21.67459,14.0861193,21.58057Q14.0575978,21.48655,14.0384294,21.39018Q14.0192611,21.29381,14.00963055,21.19603Q14,21.09825,14,21Q14,20.90175,14.00963055,20.80397Q14.0192611,20.70619,14.0384294,20.60982Q14.0575978,20.51345,14.0861193,20.41943Q14.114641,20.32541,14.152241,20.23463Q14.189841,20.14386,14.236157,20.05721Q14.282474,19.970554,14.337061,19.888859Q14.391648,19.807164,14.453979,19.731213Q14.516311,19.655262,14.585786,19.585786Q14.655262,19.516311,14.731213,19.453979Q14.807164,19.391648,14.888859,19.337061Q14.970554,19.282474,15.05721,19.236157Q15.14386,19.189841,15.23463,19.152241Q15.32541,19.114641,15.41943,19.0861193Q15.51345,19.0575978,15.60982,19.0384294Q15.70619,19.0192611,15.80397,19.00963055Q15.90175,19,16,19Q16.09825,19,16.19603,19.00963055Q16.29381,19.0192611,16.39018,19.0384294Q16.48655,19.0575978,16.58057,19.0861193Q16.67459,19.114641,16.76537,19.152241Q16.85614,19.189841,16.94279,19.236157Q17.02945,19.282474,17.11114,19.337061Q17.19284,19.391648,17.26879,19.453979Q17.34474,19.516311,17.41421,19.585786Q17.48369,19.655262,17.54602,19.731213Q17.60835,19.807164,17.66294,19.888859Q17.71753,19.970554,17.763840000000002,20.05721Q17.81016,20.14386,17.84776,20.23463Q17.88536,20.32541,17.91388,20.41943Q17.9424,20.51345,17.961570000000002,20.60982Q17.98074,20.70619,17.99037,20.80397Q18,20.90175,18,21Z" fill="#000000" fill-opacity="1"/></g><g transform="matrix(-1,-8.742277657347586e-8,8.742277657347586e-8,-1,27.999998776081128,28.000001223918872)"><path d="M18,16Q18,16.09825,17.99037,16.19603Q17.98074,16.29381,17.961570000000002,16.39018Q17.9424,16.48655,17.91388,16.58057Q17.88536,16.67459,17.84776,16.76537Q17.81016,16.85614,17.763840000000002,16.94279Q17.71753,17.02945,17.66294,17.11114Q17.60835,17.19284,17.54602,17.26879Q17.48369,17.34474,17.41421,17.41421Q17.34474,17.48369,17.26879,17.54602Q17.19284,17.60835,17.11114,17.66294Q17.02945,17.71753,16.94279,17.763840000000002Q16.85614,17.81016,16.76537,17.84776Q16.67459,17.88536,16.58057,17.91388Q16.48655,17.9424,16.39018,17.961570000000002Q16.29381,17.98074,16.19603,17.99037Q16.09825,18,16,18Q15.90175,18,15.80397,17.99037Q15.70619,17.98074,15.60982,17.961570000000002Q15.51345,17.9424,15.41943,17.91388Q15.32541,17.88536,15.23463,17.84776Q15.14386,17.81016,15.05721,17.763840000000002Q14.970554,17.71753,14.888859,17.66294Q14.807164,17.60835,14.731213,17.54602Q14.655262,17.48369,14.585786,17.41421Q14.516311,17.34474,14.453979,17.26879Q14.391648,17.19284,14.337061,17.11114Q14.282474,17.02945,14.236157,16.94279Q14.189841,16.85614,14.152241,16.76537Q14.114641,16.67459,14.0861193,16.58057Q14.0575978,16.48655,14.0384294,16.39018Q14.0192611,16.29381,14.00963055,16.19603Q14,16.09825,14,16Q14,15.90175,14.00963055,15.80397Q14.0192611,15.70619,14.0384294,15.60982Q14.0575978,15.51345,14.0861193,15.41943Q14.114641,15.32541,14.152241,15.23463Q14.189841,15.14386,14.236157,15.05721Q14.282474,14.970554,14.337061,14.888859Q14.391648,14.807164,14.453979,14.731213Q14.516311,14.655262,14.585786,14.585786Q14.655262,14.516311,14.731213,14.453979Q14.807164,14.391648,14.888859,14.337061Q14.970554,14.282474,15.05721,14.236157Q15.14386,14.189841,15.23463,14.152241Q15.32541,14.114641,15.41943,14.0861193Q15.51345,14.0575978,15.60982,14.0384294Q15.70619,14.0192611,15.80397,14.00963055Q15.90175,14,16,14Q16.09825,14,16.19603,14.00963055Q16.29381,14.0192611,16.39018,14.0384294Q16.48655,14.0575978,16.58057,14.0861193Q16.67459,14.114641,16.76537,14.152241Q16.85614,14.189841,16.94279,14.236157Q17.02945,14.282474,17.11114,14.337061Q17.19284,14.391648,17.26879,14.453979Q17.34474,14.516311,17.41421,14.585786Q17.48369,14.655262,17.54602,14.731213Q17.60835,14.807164,17.66294,14.888859Q17.71753,14.970554,17.763840000000002,15.05721Q17.81016,15.14386,17.84776,15.23463Q17.88536,15.32541,17.91388,15.41943Q17.9424,15.51345,17.961570000000002,15.60982Q17.98074,15.70619,17.99037,15.80397Q18,15.90175,18,16Z" fill="#000000" fill-opacity="1"/></g><g transform="matrix(-1,-8.742277657347586e-8,8.742277657347586e-8,-1,27.999999213194968,18.00000217759319)"><path d="M18,11.000000476837158Q18,11.098250476837158,17.99037,11.196030476837159Q17.98074,11.293810476837159,17.961570000000002,11.390180476837159Q17.9424,11.486550476837158,17.91388,11.580570476837158Q17.88536,11.674590476837158,17.84776,11.765370476837159Q17.81016,11.856140476837158,17.763840000000002,11.942790476837159Q17.71753,12.029450476837159,17.66294,12.111140476837157Q17.60835,12.192840476837159,17.54602,12.268790476837157Q17.48369,12.344740476837158,17.41421,12.414210476837159Q17.34474,12.483690476837157,17.26879,12.546020476837159Q17.19284,12.608350476837158,17.11114,12.662940476837157Q17.02945,12.717530476837158,16.94279,12.763840476837158Q16.85614,12.810160476837158,16.76537,12.84776047683716Q16.67459,12.885360476837159,16.58057,12.913880476837157Q16.48655,12.942400476837157,16.39018,12.961570476837158Q16.29381,12.980740476837159,16.19603,12.990370476837159Q16.09825,13.000000476837158,16,13.000000476837158Q15.90175,13.000000476837158,15.80397,12.990370476837159Q15.70619,12.980740476837159,15.60982,12.961570476837158Q15.51345,12.942400476837157,15.41943,12.913880476837157Q15.32541,12.885360476837159,15.23463,12.84776047683716Q15.14386,12.810160476837158,15.05721,12.763840476837158Q14.970554,12.717530476837158,14.888859,12.662940476837157Q14.807164,12.608350476837158,14.731213,12.546020476837159Q14.655262,12.483690476837157,14.585786,12.414210476837159Q14.516311,12.344740476837158,14.453979,12.268790476837157Q14.391648,12.192840476837159,14.337061,12.111140476837157Q14.282474,12.029450476837159,14.236157,11.942790476837159Q14.189841,11.856140476837158,14.152241,11.765370476837159Q14.114641,11.674590476837158,14.0861193,11.580570476837158Q14.0575978,11.486550476837158,14.0384294,11.390180476837159Q14.0192611,11.293810476837159,14.00963055,11.196030476837159Q14,11.098250476837158,14,11.000000476837158Q14,10.901750476837158,14.00963055,10.803970476837158Q14.0192611,10.706190476837158,14.0384294,10.609820476837157Q14.0575978,10.513450476837159,14.0861193,10.419430476837158Q14.114641,10.325410476837158,14.152241,10.234630476837157Q14.189841,10.143860476837158,14.236157,10.057210476837158Q14.282474,9.970554476837158,14.337061,9.888859476837158Q14.391648,9.807164476837158,14.453979,9.731213476837159Q14.516311,9.655262476837159,14.585786,9.585786476837159Q14.655262,9.516311476837158,14.731213,9.453979476837159Q14.807164,9.391648476837158,14.888859,9.337061476837158Q14.970554,9.282474476837159,15.05721,9.236157476837159Q15.14386,9.189841476837158,15.23463,9.152241476837158Q15.32541,9.114641476837159,15.41943,9.086119776837158Q15.51345,9.057598276837158,15.60982,9.038429876837158Q15.70619,9.019261576837158,15.80397,9.009631026837159Q15.90175,9.000000476837158,16,9.000000476837158Q16.09825,9.000000476837158,16.19603,9.009631026837159Q16.29381,9.019261576837158,16.39018,9.038429876837158Q16.48655,9.057598276837158,16.58057,9.086119776837158Q16.67459,9.114641476837159,16.76537,9.152241476837158Q16.85614,9.189841476837158,16.94279,9.236157476837159Q17.02945,9.282474476837159,17.11114,9.337061476837158Q17.19284,9.391648476837158,17.26879,9.453979476837159Q17.34474,9.516311476837158,17.41421,9.585786476837159Q17.48369,9.655262476837159,17.54602,9.731213476837159Q17.60835,9.807164476837158,17.66294,9.888859476837158Q17.71753,9.970554476837158,17.763840000000002,10.057210476837158Q17.81016,10.143860476837158,17.84776,10.234630476837157Q17.88536,10.325410476837158,17.91388,10.419430476837158Q17.9424,10.513450476837159,17.961570000000002,10.609820476837157Q17.98074,10.706190476837158,17.99037,10.803970476837158Q18,10.901750476837158,18,11.000000476837158Z" fill="#000000" fill-opacity="1"/></g></g></g></svg>