<svg xmlns="http://www.w3.org/2000/svg" xmlns:xlink="http://www.w3.org/1999/xlink" fill="none" version="1.1" width="24" height="24" viewBox="0 0 24 24"><defs><clipPath id="master_svg0_28_90"><rect x="0" y="0" width="24" height="24" rx="0"/></clipPath></defs><g clip-path="url(#master_svg0_28_90)"><g><g><path d="M5.5,14C5.5,14,8.5,14,8.5,14C8.5,14,8.5,22,8.5,22C8.5,22.4374,8.7843,22.8241,9.201830000000001,22.9545C9.61936,23.0849,10.0732,22.9289,10.322189999999999,22.5692C10.322189999999999,22.5692,19.322200000000002,9.56921,19.322200000000002,9.56921C19.5339,9.2634,19.5584,8.86535,19.3858,8.53589C19.2132,8.206430000000001,18.8719,8,18.5,8C18.5,8,15.653,8,15.653,8C15.653,8,16.4899,2.14142,16.4899,2.14142C16.530900000000003,1.8544429999999998,16.4454,1.563798,16.255499999999998,1.344798C16.0655,1.125799,15.7899,1,15.5,1C15.5,1,5.5,1,5.5,1C4.947715,1,4.5,1.447715,4.5,2C4.5,2,4.5,13,4.5,13C4.5,13.5523,4.947715,14,5.5,14ZM13.51005,8.85858C13.46905,9.14556,13.55461,9.4362,13.74455,9.6552C13.93448,9.8742,14.21011,10,14.5,10C14.5,10,16.5914,10,16.5914,10C16.5914,10,10.5,18.7987,10.5,18.7987C10.5,18.7987,10.5,13,10.5,13C10.5,12.4477,10.05228,12,9.5,12C9.5,12,6.5,12,6.5,12C6.5,12,6.5,3,6.5,3C6.5,3,14.34699,3,14.34699,3C14.34699,3,13.51005,8.85858,13.51005,8.85858Z" fill-rule="evenodd" fill="#FFFFFF" fill-opacity="1"/></g></g></g></svg>