<svg xmlns="http://www.w3.org/2000/svg" xmlns:xlink="http://www.w3.org/1999/xlink" fill="none" version="1.1" width="24" height="24" viewBox="0 0 24 24"><defs><clipPath id="master_svg0_24_87"><rect x="0" y="0" width="24" height="24" rx="0"/></clipPath></defs><g clip-path="url(#master_svg0_24_87)"><g><g><path d="M4,22.75C4,22.75,6,22.75,6,22.75C6.414210000000001,22.75,6.75,22.4142,6.75,22C6.75,21.5858,6.414210000000001,21.25,6,21.25C6,21.25,4.75,21.25,4.75,21.25C4.75,21.25,4.75,4.75,4.75,4.75C4.75,4.75,19.25,4.75,19.25,4.75C19.25,4.75,19.25,21.25,19.25,21.25C19.25,21.25,10,21.25,10,21.25C9.58579,21.25,9.25,21.5858,9.25,22C9.25,22.4142,9.58579,22.75,10,22.75C10,22.75,20,22.75,20,22.75C20.4142,22.75,20.75,22.4142,20.75,22C20.75,22,20.75,4,20.75,4C20.75,3.585786,20.4142,3.25,20,3.25C20,3.25,4,3.25,4,3.25C3.585786,3.25,3.25,3.585786,3.25,4C3.25,4,3.25,22,3.25,22C3.25,22.4142,3.585786,22.75,4,22.75Z" fill-rule="evenodd" fill="#FFFFFF" fill-opacity="1"/></g><g><path d="M7.25,6C7.25,6.41421,7.585786,6.75,8,6.75C8.41421,6.75,8.75,6.41421,8.75,6C8.75,6,8.75,2,8.75,2C8.75,1.585786,8.41421,1.25,8,1.25C7.585786,1.25,7.25,1.585786,7.25,2C7.25,2,7.25,6,7.25,6Z" fill-rule="evenodd" fill="#FFFFFF" fill-opacity="1"/></g><g><path d="M11.25,6C11.25,6.41421,11.585786,6.75,12,6.75C12.41421,6.75,12.75,6.41421,12.75,6C12.75,6,12.75,2,12.75,2C12.75,1.585786,12.41421,1.25,12,1.25C11.585786,1.25,11.25,1.585786,11.25,2C11.25,2,11.25,6,11.25,6Z" fill-rule="evenodd" fill="#FFFFFF" fill-opacity="1"/></g><g><path d="M15.25,6C15.25,6.41421,15.585786,6.75,16,6.75C16.41421,6.75,16.75,6.41421,16.75,6C16.75,6,16.75,2,16.75,2C16.75,1.585786,16.41421,1.25,16,1.25C15.585786,1.25,15.25,1.585786,15.25,2C15.25,2,15.25,6,15.25,6Z" fill-rule="evenodd" fill="#FFFFFF" fill-opacity="1"/></g><g><path d="M14,10.75C14.41421,10.75,14.75,10.41421,14.75,10C14.75,9.585786,14.41421,9.25,14,9.25C14,9.25,7,9.25,7,9.25C6.585786,9.25,6.25,9.585786,6.25,10C6.25,10.41421,6.585786,10.75,7,10.75C7,10.75,14,10.75,14,10.75Z" fill-rule="evenodd" fill="#FFFFFF" fill-opacity="1"/></g><g><path d="M17.5,14.75C17.9142,14.75,18.25,14.41421,18.25,14C18.25,13.585786,17.9142,13.25,17.5,13.25C17.5,13.25,7,13.25,7,13.25C6.585786,13.25,6.25,13.585786,6.25,14C6.25,14.41421,6.585786,14.75,7,14.75C7,14.75,17.5,14.75,17.5,14.75Z" fill-rule="evenodd" fill="#FFFFFF" fill-opacity="1"/></g><g><path d="M15,18.75C15.41421,18.75,15.75,18.41421,15.75,18C15.75,17.585786,15.41421,17.25,15,17.25C15,17.25,7,17.25,7,17.25C6.585786,17.25,6.25,17.585786,6.25,18C6.25,18.41421,6.585786,18.75,7,18.75C7,18.75,15,18.75,15,18.75Z" fill-rule="evenodd" fill="#FFFFFF" fill-opacity="1"/></g></g></g></svg>