<svg xmlns="http://www.w3.org/2000/svg" xmlns:xlink="http://www.w3.org/1999/xlink" fill="none" version="1.1" width="20" height="20" viewBox="0 0 20 20"><defs><clipPath id="master_svg0_0_7401"><rect x="0" y="0" width="20" height="20" rx="0"/></clipPath></defs><g clip-path="url(#master_svg0_0_7401)"><g><g><path d="M8.333328247070312,13.749951953125C5.341788247070312,13.749951953125,2.9166612470703126,11.324791953125,2.9166612470703126,8.333251953125C2.9166612470703126,5.3417119531249995,5.341788247070312,2.916584953125,8.333328247070312,2.916584953125C11.324868247070313,2.916584953125,13.750028247070313,5.3417119531249995,13.750028247070313,8.333251953125C13.750028247070313,11.324791953125,11.324868247070313,13.749951953125,8.333328247070312,13.749951953125ZM14.583328247070312,8.333251953125C14.583328247070312,4.881471953125001,11.785108247070312,2.083251953125,8.333328247070312,2.083251953125C4.881548247070313,2.083251953125,2.0833282470703125,4.881471953125001,2.0833282470703125,8.333251953125C2.0833282470703125,11.785031953125,4.881548247070313,14.583251953125,8.333328247070312,14.583251953125C11.785108247070312,14.583251953125,14.583328247070312,11.785031953125,14.583328247070312,8.333251953125Z" fill-rule="evenodd" fill="#000000" fill-opacity="1"/></g><g><path d="M17.20538330078125,17.794582265625C17.20538330078125,17.794582265625,17.79464330078125,17.205322265625,17.79464330078125,17.205322265625C17.79464330078125,17.205322265625,12.79463930078125,12.205322265625,12.79463930078125,12.205322265625C12.79463930078125,12.205322265625,12.20538330078125,12.794578265625,12.20538330078125,12.794578265625C12.20538330078125,12.794578265625,17.20538330078125,17.794582265625,17.20538330078125,17.794582265625Z" fill-rule="evenodd" fill="#000000" fill-opacity="1"/></g></g></g></svg>