<svg xmlns="http://www.w3.org/2000/svg" xmlns:xlink="http://www.w3.org/1999/xlink" fill="none" version="1.1" width="24" height="24" viewBox="0 0 24 24"><defs><clipPath id="master_svg0_0_9003"><rect x="0" y="0" width="24" height="24" rx="0"/></clipPath></defs><g clip-path="url(#master_svg0_0_9003)"><g><g><path d="M8.3931,4.857559999999999C8.3931,4.857559999999999,7.40381,3.86827,7.40381,3.86827C7.01328,3.47775,6.38012,3.47775,5.98959,3.86827C5.98959,3.86827,3.86827,5.98959,3.86827,5.98959C3.47775,6.38012,3.47775,7.01328,3.86827,7.40381C3.86827,7.40381,4.857559999999999,8.3931,4.857559999999999,8.3931C4.67822,8.747630000000001,4.524430000000001,9.11741,4.39866,9.5C4.39866,9.5,3,9.5,3,9.5C2.447715,9.5,2,9.94772,2,10.5C2,10.5,2,13.5,2,13.5C2,14.0523,2.447715,14.5,3,14.5C3,14.5,4.39866,14.5,4.39866,14.5C4.524430000000001,14.8826,4.67822,15.2524,4.857559999999999,15.6069C4.857559999999999,15.6069,3.86827,16.5962,3.86827,16.5962C3.47775,16.9867,3.47775,17.6199,3.86827,18.0104C3.86827,18.0104,5.98959,20.1317,5.98959,20.1317C6.17713,20.3193,6.43148,20.4246,6.6967,20.4246C6.96192,20.4246,7.21627,20.3193,7.40381,20.1317C7.40381,20.1317,8.3931,19.1424,8.3931,19.1424C8.747630000000001,19.3218,9.11741,19.4756,9.5,19.6013C9.5,19.6013,9.5,21,9.5,21C9.5,21.5523,9.94772,22,10.5,22C10.5,22,13.5,22,13.5,22C14.0523,22,14.5,21.5523,14.5,21C14.5,21,14.5,19.6013,14.5,19.6013C14.8826,19.4756,15.2524,19.3218,15.6069,19.1424C15.6069,19.1424,16.5962,20.1317,16.5962,20.1317C16.9867,20.5223,17.6199,20.5223,18.0104,20.1317C18.0104,20.1317,20.1317,18.0104,20.1317,18.0104C20.5223,17.6199,20.5223,16.9867,20.1317,16.5962C20.1317,16.5962,19.1424,15.6069,19.1424,15.6069C19.3218,15.2524,19.4756,14.8826,19.6013,14.5C19.6013,14.5,21,14.5,21,14.5C21.5523,14.5,22,14.0523,22,13.5C22,13.5,22,10.5,22,10.5C22,9.94772,21.5523,9.5,21,9.5C21,9.5,19.6013,9.5,19.6013,9.5C19.4756,9.11741,19.3218,8.747630000000001,19.1424,8.3931C19.1424,8.3931,20.1317,7.40381,20.1317,7.40381C20.3193,7.21627,20.4246,6.96192,20.4246,6.6967C20.4246,6.43148,20.3193,6.17713,20.1317,5.98959C20.1317,5.98959,18.0104,3.86827,18.0104,3.86827C17.6199,3.47775,16.9867,3.47775,16.5962,3.86827C16.5962,3.86827,15.6069,4.857559999999999,15.6069,4.857559999999999C15.2524,4.67822,14.8826,4.524430000000001,14.5,4.39866C14.5,4.39866,14.5,3,14.5,3C14.5,2.447715,14.0523,2,13.5,2C13.5,2,10.5,2,10.5,2C9.94772,2,9.5,2.447715,9.5,3C9.5,3,9.5,4.39866,9.5,4.39866C9.11741,4.524430000000001,8.747630000000001,4.67822,8.3931,4.857559999999999ZM12.5,5.16109C12.5,5.6311800000000005,12.8274,6.03781,13.2867,6.13808C13.9897,6.29157,14.647,6.56853,15.2348,6.94563C15.6304,7.19946,16.1494,7.14345,16.4818,6.81105C16.4818,6.81105,17.3033,5.98959,17.3033,5.98959C17.3033,5.98959,18.0104,6.6967,18.0104,6.6967C18.0104,6.6967,17.1889,7.51816,17.1889,7.51816C16.8566,7.85055,16.8005,8.369589999999999,17.0544,8.76524C17.4315,9.35304,17.708399999999997,10.01026,17.8619,10.7133C17.9622,11.17257,18.3688,11.5,18.8389,11.5C18.8389,11.5,20,11.5,20,11.5C20,11.5,20,12.5,20,12.5C20,12.5,18.8389,12.5,18.8389,12.5C18.3688,12.5,17.9622,12.8274,17.8619,13.2867C17.708399999999997,13.9897,17.4315,14.647,17.0544,15.2348C16.8005,15.6304,16.8566,16.1494,17.1889,16.4818C17.1889,16.4818,18.0104,17.3033,18.0104,17.3033C18.0104,17.3033,17.3033,18.0104,17.3033,18.0104C17.3033,18.0104,16.4818,17.1889,16.4818,17.1889C16.1494,16.8566,15.6304,16.8005,15.2348,17.0544C14.647,17.4315,13.9897,17.708399999999997,13.2867,17.8619C12.8274,17.9622,12.5,18.3688,12.5,18.8389C12.5,18.8389,12.5,20,12.5,20C12.5,20,11.5,20,11.5,20C11.5,20,11.5,18.8389,11.5,18.8389C11.5,18.3688,11.17257,17.9622,10.7133,17.8619C10.01026,17.708399999999997,9.35304,17.4315,8.76524,17.0544C8.369589999999999,16.8005,7.85055,16.8566,7.51816,17.1889C7.51816,17.1889,6.6967,18.0104,6.6967,18.0104C6.6967,18.0104,5.98959,17.3033,5.98959,17.3033C5.98959,17.3033,6.81105,16.4818,6.81105,16.4818C7.14345,16.1494,7.19946,15.6304,6.94563,15.2348C6.56853,14.647,6.29157,13.9897,6.13808,13.2867C6.03781,12.8274,5.6311800000000005,12.5,5.16109,12.5C5.16109,12.5,4,12.5,4,12.5C4,12.5,4,11.5,4,11.5C4,11.5,5.16109,11.5,5.16109,11.5C5.6311800000000005,11.5,6.03781,11.17257,6.13808,10.7133C6.29157,10.01026,6.56853,9.35304,6.94563,8.76524C7.19946,8.369589999999999,7.14345,7.85055,6.81105,7.51816C6.81105,7.51816,5.98959,6.6967,5.98959,6.6967C5.98959,6.6967,6.6967,5.98959,6.6967,5.98959C6.6967,5.98959,7.51816,6.81105,7.51816,6.81105C7.85055,7.14345,8.369589999999999,7.19946,8.76524,6.94563C9.35304,6.56853,10.01026,6.29157,10.7133,6.13808C11.17257,6.03781,11.5,5.6311800000000005,11.5,5.16109C11.5,5.16109,11.5,4,11.5,4C11.5,4,12.5,4,12.5,4C12.5,4,12.5,5.16109,12.5,5.16109Z" fill-rule="evenodd" fill="#000000" fill-opacity="1"/></g><g><path d="M12,14C10.895430000000001,14,10,13.104569999999999,10,12C10,10.895430000000001,10.895430000000001,10,12,10C13.104569999999999,10,14,10.895430000000001,14,12C14,13.104569999999999,13.104569999999999,14,12,14ZM16,12C16,9.79086,14.20914,8,12,8C9.79086,8,8,9.79086,8,12C8,14.20914,9.79086,16,12,16C14.20914,16,16,14.20914,16,12Z" fill-rule="evenodd" fill="#000000" fill-opacity="1"/></g></g></g></svg>